<svg xmlns="http://www.w3.org/2000/svg" width="512" height="512" viewBox="0 0 512 512"><path transform="translate(61.44,139.47) scale(0.52021)" d="M 315.5,1.1999999999999886 C 313.40000000000003,1.6999999999999886 281.7,32.799999999999955 206.5,107.89999999999998 C 146.5,167.89999999999998 99.30000000000001,214.39999999999998 97.7,215.0 C 95.9,215.6 79.4,216.0 52.300000000000004,216.0 C 11.4,216.0 9.600000000000001,216.1 6.5,218.0 C -0.4,222.29999999999998 0.0,215.79999999999998 0.0,328.7 C 0.0,428.5 0.0,430.6 2.0,433.8 C 6.0,440.3 12.9,442.5 19.5,439.4 C 21.3,438.6 70.9,389.4 130.6,329.3 C 223.9,235.5 239.20000000000002,220.39999999999998 243.8,218.39999999999998 C 249.0,216.0 249.5,216.0 281.8,216.0 C 312.40000000000003,216.0 314.70000000000005,216.1 317.70000000000005,218.0 C 319.40000000000003,219.0 321.5,220.89999999999998 322.20000000000005,222.2 C 323.20000000000005,224.0 323.6,245.1 324.0,328.0 L 324.5,431.5 L 326.8,434.8 C 331.0,440.6 338.1,442.6 343.8,439.6 C 345.3,438.8 395.8,388.8 456.0,328.5 C 516.2,268.2 566.7,218.2 568.2,217.39999999999998 C 570.4,216.29999999999998 577.3000000000001,216.0 605.2,216.0 C 637.4000000000001,216.0 639.7,216.1 642.7,218.0 C 644.4000000000001,219.0 646.5,220.89999999999998 647.2,222.2 C 648.2,224.0 648.6,245.7 649.0,331.7 C 649.5,438.1 649.5,438.9 651.6,441.7 C 654.8000000000001,446.1 659.7,448.2 665.0,447.5 C 669.4000000000001,447.0 670.6,445.9 707.3000000000001,409.2 C 728.1,388.5 745.8000000000001,370.3 746.6,368.8 C 747.8000000000001,366.5 748.0,354.9 748.0,295.79999999999995 C 748.0,228.0 747.9000000000001,225.39999999999998 746.0,222.29999999999998 C 742.5,216.5 742.6,216.5 703.3000000000001,216.0 C 668.7,215.5 667.0,215.39999999999998 664.3000000000001,213.39999999999998 C 662.8000000000001,212.29999999999998 660.7,209.79999999999998 659.8000000000001,207.89999999999998 C 658.1,204.7 658.0,197.89999999999998 658.0,107.79999999999995 C 658.0,-0.7000000000000455 658.4000000000001,5.7999999999999545 650.8000000000001,1.8999999999999773 C 646.6,-0.20000000000004547 643.4000000000001,-0.5 639.3000000000001,1.099999999999966 C 637.7,1.6999999999999886 590.2,48.599999999999966 529.9,109.09999999999997 L 423.3,216.1 L 382.70000000000005,215.79999999999998 C 343.5,215.5 342.1,215.39999999999998 339.3,213.39999999999998 C 337.8,212.29999999999998 335.70000000000005,209.79999999999998 334.8,207.89999999999998 C 333.1,204.7 333.0,197.89999999999998 333.0,107.69999999999999 C 333.0,4.099999999999966 333.20000000000005,8.199999999999989 328.1,3.599999999999966 C 325.6,1.2999999999999545 319.5,0.0999999999999659 315.5,1.1999999999999886" fill="#30FFC0"/></svg>